<svg width="2600" height="1320" viewBox="0 0 2600 1320" fill="none" xmlns="http://www.w3.org/2000/svg">
<rect x="413" y="157" width="1920" height="1080" fill="#240047"/>
<g clip-path="url(#clip0_8_25)">
<path d="M667.976 157.022C779.57 189.605 881.618 259.193 948.041 355.058C1014.46 450.922 1043.52 572.961 1021.06 686.09C998.627 799.185 939.285 911.887 816.532 936.167C689.732 961.249 418.776 1082.11 410.489 1189.42" stroke="#F9F9F9" stroke-width="1.5" stroke-miterlimit="10" stroke-linecap="round"/>
<path d="M667.976 157.022C779.57 189.605 881.618 259.193 948.041 355.058C1014.46 450.922 1043.52 572.961 1021.06 686.09C998.627 799.185 939.285 911.887 816.532 936.167C689.732 961.249 418.776 1082.11 410.489 1189.42" stroke="#F9F9F9" stroke-width="1.5" stroke-miterlimit="10" stroke-linecap="round"/>
</g>
<g clip-path="url(#clip1_8_25)">
<path d="M2332.42 153.68C2223.51 219.051 2023.98 390.968 1980.74 499.401C1964.72 539.543 1954.66 586.012 1979.54 626.311C2004.24 666.255 2056.39 689.178 2091.57 723.642C2128.01 759.303 2144.53 806.229 2146.76 851.111C2149 895.993 2138.12 939.447 2125.88 981.982C2113.52 1024.99 2100.31 1072.53 2125.81 1114.48C2145.24 1146.4 2183.35 1167.93 2221.25 1184.28C2259.15 1200.63 2299.42 1213.93 2332.47 1237.02L2332.35 153.69L2332.42 153.68Z" fill="#40FFDC"/>
</g>
<defs>
<clipPath id="clip0_8_25">
<rect width="1105.86" height="757.266" fill="white" transform="translate(1315.15 530.606) rotate(134.482)"/>
</clipPath>
<clipPath id="clip1_8_25">
<rect width="1047.72" height="529.898" fill="white" transform="translate(1820.51 1102.3) rotate(-75.2739)"/>
</clipPath>
</defs>
</svg>
