<svg width="621" height="1035" viewBox="0 0 621 1035" fill="none" xmlns="http://www.w3.org/2000/svg">
<path fill-rule="evenodd" clip-rule="evenodd" d="M258.256 0.812148C258.372 0.414536 258.788 0.186318 259.186 0.30241C370.931 32.929 473.128 102.613 539.658 198.631C606.186 294.647 635.302 416.891 612.794 530.236C590.345 643.423 530.891 756.531 407.677 780.903C344.367 793.426 245.001 829.88 160.431 876.613C118.148 899.979 79.5978 925.895 51.1116 952.649C22.603 979.424 4.28658 1006.93 2.23695 1033.47C2.20505 1033.89 1.84441 1034.19 1.43142 1034.16C1.01844 1034.13 0.709506 1033.77 0.741399 1033.36C2.83519 1006.25 21.4959 978.406 50.0847 951.556C78.6959 924.685 117.364 898.699 159.705 875.301C244.385 828.507 343.897 791.99 407.386 779.432C529.679 755.242 588.91 642.947 611.323 529.944C633.745 417.032 604.743 295.197 538.425 199.485C472.107 103.773 370.209 34.2807 258.766 1.74229C258.368 1.6262 258.14 1.20976 258.256 0.812148Z" fill="#F9F9F9"/>
</svg>
