<svg width="38" height="143" viewBox="0 0 38 143" fill="none" xmlns="http://www.w3.org/2000/svg">
<path d="M9.32811 4.50577C9.31418 6.76568 7.46477 8.57596 5.18816 8.54936C2.91155 8.52276 1.07751 6.67658 1.09145 4.41668C1.10538 2.15677 2.95479 0.346494 5.2314 0.373092C7.50801 0.39969 9.34205 2.24587 9.32811 4.50577Z" fill="#40FFDC"/>
<path d="M9.15201 37.9597C9.13807 40.2196 7.28867 42.0299 5.01206 42.0033C2.73544 41.9767 0.901409 40.1305 0.915345 37.8706C0.92928 35.6107 2.77868 33.8004 5.05529 33.827C7.33191 33.8536 9.16594 35.6998 9.15201 37.9597Z" fill="#40FFDC"/>
<path d="M8.97142 71.4268C8.95748 73.6867 7.10808 75.497 4.83147 75.4704C2.55486 75.4438 0.72082 73.5976 0.734755 71.3377C0.74869 69.0778 2.59809 67.2676 4.8747 67.2942C7.15132 67.3207 8.98535 69.1669 8.97142 71.4268Z" fill="#40FFDC"/>
<path d="M8.79083 104.894C8.7769 107.154 6.92749 108.964 4.65088 108.938C2.37427 108.911 0.540231 107.065 0.554166 104.805C0.568102 102.545 2.4175 100.735 4.69412 100.761C6.97073 100.788 8.80477 102.634 8.79083 104.894Z" fill="#40FFDC"/>
<path d="M8.62358 138.365C8.60965 140.625 6.76025 142.436 4.48363 142.409C2.20702 142.382 0.372984 140.536 0.38692 138.276C0.400855 136.016 2.25026 134.206 4.52687 134.233C6.80348 134.259 8.63752 136.106 8.62358 138.365Z" fill="#40FFDC"/>
<path d="M37.2201 4.79971C37.2061 7.05961 35.3567 8.86988 33.0801 8.84328C30.8035 8.81669 28.9695 6.97051 28.9834 4.7106C28.9973 2.4507 30.8467 0.640429 33.1234 0.667027C35.4 0.693625 37.234 2.5398 37.2201 4.79971Z" fill="#40FFDC"/>
<path d="M37.0395 38.2668C37.0255 40.5267 35.1761 42.337 32.8995 42.3104C30.6229 42.2838 28.7889 40.4376 28.8028 38.1777C28.8168 35.9178 30.6662 34.1075 32.9428 34.1341C35.2194 34.1607 37.0534 36.0069 37.0395 38.2668Z" fill="#40FFDC"/>
<path d="M36.8589 71.7339C36.845 73.9938 34.9956 75.8041 32.7189 75.7775C30.4423 75.7509 28.6083 73.9047 28.6222 71.6448C28.6362 69.3849 30.4856 67.5746 32.7622 67.6012C35.0388 67.6278 36.8728 69.474 36.8589 71.7339Z" fill="#40FFDC"/>
<path d="M36.6828 105.188C36.6689 107.448 34.8195 109.258 32.5429 109.231C30.2662 109.205 28.4322 107.359 28.4461 105.099C28.4601 102.839 30.3095 101.029 32.5861 101.055C34.8627 101.082 36.6967 102.928 36.6828 105.188Z" fill="#40FFDC"/>
<path d="M36.5155 138.66C36.5016 140.919 34.6522 142.73 32.3756 142.703C30.0989 142.676 28.2649 140.83 28.2788 138.57C28.2928 136.31 30.1422 134.5 32.4188 134.527C34.6954 134.553 36.5294 136.4 36.5155 138.66Z" fill="#40FFDC"/>
</svg>
